<svg xmlns="http://www.w3.org/2000/svg" width="1024" height="1024" viewBox="0 0 1024 1024">
<g fill="#fff" fill-rule="evenodd">
<!-- Beak (downward, centered between the eyes) -->
<path d="M488 504 Q512 499 536 504 Q542 565 512 648 Q482 565 488 504 Z"/>
<!-- Left eye (round, ring) -->
<path d="M115 512 A185 185 0 1 0 485 512 A185 185 0 1 0 115 512 Z
         M161 512 A139 139 0 1 0 439 512 A139 139 0 1 0 161 512 Z"/>
<!-- Right eye (round, ring) -->
<path d="M539 512 A185 185 0 1 0 909 512 A185 185 0 1 0 539 512 Z
         M585 512 A139 139 0 1 0 863 512 A139 139 0 1 0 585 512 Z"/>
<!-- Left pupil -->
<path d="M242 512 A58 58 0 1 0 358 512 A58 58 0 1 0 242 512 Z"/>
<!-- Right pupil -->
<path d="M666 512 A58 58 0 1 0 782 512 A58 58 0 1 0 666 512 Z"/>
</g>
</svg>
