<svg xmlns="http://www.w3.org/2000/svg" width="1024" height="1024" viewBox="0 0 1024 1024">
<g fill="#fff"><g transform="translate(169.17,100.00) scale(1.20292)"><g transform="translate(0,685) scale(0.1,-0.1)"><path d="M975 6579 c-206 -41 -371 -127 -510 -264 -317 -313 -371 -814 -128
-1189 117 -181 305 -325 512 -391 85 -28 100 -26 101 12 0 29 104 251 168 360
195 330 454 595 776 793 58 36 106 70 106 76 0 22 -52 128 -96 197 -54 82
-167 198 -249 254 -161 109 -299 153 -495 158 -74 2 -157 0 -185 -6z M2860
6116 c-239 -31 -464 -93 -673 -188 -236 -106 -420 -232 -615 -422 -338 -329
-555 -754 -628 -1231 -20 -134 -23 -420 -5 -555 49 -374 184 -713 401 -1005
87 -118 321 -356 436 -443 88 -66 244 -169 337 -221 l57 -33 16 29 c39 70 284
539 284 543 0 3 -18 16 -41 30 -85 52 -232 289 -295 477 -22 63 -27 97 -27
178 -1 112 16 184 65 277 112 211 380 297 587 188 42 -22 79 -32 146 -40 49
-5 92 -6 96 -2 6 7 55 118 161 367 32 77 65 145 71 152 7 6 71 21 142 33 181
30 270 54 416 111 361 141 629 380 816 724 30 55 44 71 63 73 31 4 49 -15 117
-124 123 -194 218 -419 279 -659 l33 -130 24 55 c118 265 109 546 -26 815 -60
121 -111 189 -226 309 -335 344 -836 581 -1441 681 -131 22 -438 28 -570 11z
M4621 4892 c-128 -191 -251 -317 -439 -451 -201 -144 -490 -258 -758 -298
l-112 -16 -15 -36 c-8 -20 -51 -119 -96 -220 -45 -101 -81 -186 -81 -190 0 -3
136 -21 303 -39 166 -18 358 -39 426 -47 133 -16 141 -15 141 30 0 44 32 144
71 224 53 107 157 217 245 258 53 25 70 28 164 28 99 0 109 -2 165 -32 130
-68 224 -184 274 -336 16 -51 33 -107 36 -124 7 -36 28 -43 60 -19 17 12 18
26 12 217 -10 313 -44 502 -134 744 -43 117 -145 325 -182 374 l-18 24 -62
-91z M4385 4017 c-93 -38 -180 -123 -226 -222 -150 -318 -43 -733 216 -841 59
-24 169 -15 227 19 98 57 193 201 229 347 23 91 18 271 -10 360 -48 157 -135
277 -237 325 -47 22 -158 29 -199 12z m176 -326 c22 -22 29 -39 29 -68 0 -21
7 -47 15 -57 49 -65 -25 -236 -102 -236 -84 0 -148 127 -123 245 26 125 115
182 181 116z M2487 3669 c-61 -14 -109 -44 -159 -96 -78 -84 -108 -165 -108
-294 0 -100 18 -157 102 -321 113 -220 203 -301 339 -301 45 0 68 6 114 32 66
37 100 36 116 -6 14 -39 -11 -70 -89 -106 -56 -26 -80 -31 -147 -32 l-80 -1
-157 -300 c-161 -305 -185 -362 -237 -564 -42 -164 -126 -417 -177 -536 -62
-145 -62 -146 -22 -176 131 -99 820 -533 896 -565 161 -67 596 -75 712 -13 26
14 31 33 110 429 39 194 80 380 90 412 24 79 62 140 111 183 72 61 101 66 388
66 141 0 282 4 314 10 153 25 279 131 332 280 12 33 64 382 65 431 0 4 -47 4
-105 2 -155 -8 -295 19 -432 83 -53 26 -69 49 -58 84 13 42 39 43 135 5 132
-53 214 -68 347 -63 62 2 116 8 120 12 4 4 17 84 29 178 17 133 25 174 39 184
9 7 68 32 131 55 161 60 202 108 176 209 -12 47 -340 560 -358 560 -7 0 -24
-5 -37 -11 -22 -10 -25 -19 -30 -87 -15 -178 -82 -338 -190 -446 -171 -173
-368 -188 -556 -43 -121 93 -231 332 -231 503 l0 43 -52 5 c-184 21 -808 87
-832 89 -26 2 -30 -3 -67 -87 -22 -50 -45 -94 -52 -98 -6 -5 -25 -7 -42 -6
-27 3 -34 12 -72 88 -55 112 -117 171 -209 200 -70 21 -106 23 -167 9z m151
-181 c19 -11 47 -38 62 -60 37 -51 89 -175 96 -232 6 -43 6 -45 -34 -70 -69
-43 -79 -81 -33 -127 36 -36 45 -62 32 -88 -17 -30 -46 -34 -89 -12 -103 52
-119 193 -32 276 36 34 36 38 9 110 -29 77 -63 115 -102 115 -40 0 -50 -7 -74
-49 -26 -46 -45 -58 -80 -45 -36 12 -42 57 -14 112 48 93 169 126 259 70z"/></g></g></g>
</svg>