<svg xmlns="http://www.w3.org/2000/svg" width="1024" height="1024" viewBox="0 0 1024 1024">
<g fill="#fff" fill-rule="evenodd">
<!-- Left ear tuft -->
<path d="M218 360 Q212 255 256 215 Q288 282 308 348 Z"/>
<!-- Right ear tuft -->
<path d="M806 360 Q812 255 768 215 Q736 282 716 348 Z"/>
<!-- Beak (downward, centered between the eyes) -->
<path d="M483 508 Q512 503 541 508 Q550 590 512 685 Q474 590 483 508 Z"/>
<!-- Left eye (round, ring) -->
<path d="M101 512 A185 185 0 1 0 471 512 A185 185 0 1 0 101 512 Z
         M147 512 A139 139 0 1 0 425 512 A139 139 0 1 0 147 512 Z"/>
<!-- Right eye (round, ring) -->
<path d="M553 512 A185 185 0 1 0 923 512 A185 185 0 1 0 553 512 Z
         M599 512 A139 139 0 1 0 877 512 A139 139 0 1 0 599 512 Z"/>
<!-- Left pupil -->
<path d="M228 512 A58 58 0 1 0 344 512 A58 58 0 1 0 228 512 Z"/>
<!-- Right pupil -->
<path d="M680 512 A58 58 0 1 0 796 512 A58 58 0 1 0 680 512 Z"/>
</g>
</svg>
