<svg xmlns="http://www.w3.org/2000/svg" width="1024" height="1024" viewBox="0 0 1024 1024">
<g fill="#fff" fill-rule="evenodd">
<!-- Left ear tuft -->
<path d="M232 360 Q226 255 270 215 Q302 282 322 348 Z"/>
<!-- Right ear tuft -->
<path d="M792 360 Q798 255 754 215 Q722 282 702 348 Z"/>
<!-- Beak (downward, centered between the eyes) -->
<path d="M494 506 Q512 502 530 506 Q540 582 512 682 Q484 582 494 506 Z"/>
<!-- Left eye (round, ring) -->
<path d="M115 512 A185 185 0 1 0 485 512 A185 185 0 1 0 115 512 Z
         M161 512 A139 139 0 1 0 439 512 A139 139 0 1 0 161 512 Z"/>
<!-- Right eye (round, ring) -->
<path d="M539 512 A185 185 0 1 0 909 512 A185 185 0 1 0 539 512 Z
         M585 512 A139 139 0 1 0 863 512 A139 139 0 1 0 585 512 Z"/>
<!-- Left pupil -->
<path d="M242 512 A58 58 0 1 0 358 512 A58 58 0 1 0 242 512 Z"/>
<!-- Right pupil -->
<path d="M666 512 A58 58 0 1 0 782 512 A58 58 0 1 0 666 512 Z"/>
</g>
</svg>
