<svg xmlns="http://www.w3.org/2000/svg" width="1024" height="1024" viewBox="0 0 1024 1024">
<g fill="#fff" fill-rule="evenodd">
<!-- Left eyelashes (prominent) -->
<path d="M232.69 339.26 Q222.31 309.90 195.61 288.14 Q195.12 322.58 210.94 349.40 Z"/>
<path d="M313.00 327.00 Q316.50 292.00 300.00 257.00 Q283.50 292.00 287.00 327.00 Z"/>
<path d="M389.06 349.40 Q404.88 322.58 404.39 288.14 Q377.69 309.90 367.31 339.26 Z"/>
<!-- Right eyelashes (prominent) -->
<path d="M813.06 349.40 Q828.88 322.58 828.39 288.14 Q801.69 309.90 791.31 339.26 Z"/>
<path d="M737.00 327.00 Q740.50 292.00 724.00 257.00 Q707.50 292.00 711.00 327.00 Z"/>
<path d="M656.69 339.26 Q646.31 309.90 619.61 288.14 Q619.12 322.58 634.94 349.40 Z"/>
<!-- Beak (downward, between the eyes) -->
<path d="M482 494 C500 486 524 486 542 494 L520 572 Q512 598 504 572 Z"/>
<!-- Left lens (round, ring) -->
<path d="M115 512 A185 185 0 1 0 485 512 A185 185 0 1 0 115 512 Z
         M161 512 A139 139 0 1 0 439 512 A139 139 0 1 0 161 512 Z"/>
<!-- Right lens (round, ring) -->
<path d="M539 512 A185 185 0 1 0 909 512 A185 185 0 1 0 539 512 Z
         M585 512 A139 139 0 1 0 863 512 A139 139 0 1 0 585 512 Z"/>
</g>
</svg>
