<svg xmlns="http://www.w3.org/2000/svg" width="1024" height="1024" viewBox="0 0 1024 1024">
<g fill="#fff" fill-rule="evenodd">
<!-- Left eyelashes (soft, subtle) -->
<path d="M222.81 343.54 Q216.63 328.71 198.08 320.45 Q194.56 340.45 203.39 353.86 Z"/>
<path d="M285.14 327.27 Q284.4 311.22 269.8 297.11 Q259.65 314.69 263.36 330.33 Z"/>
<path d="M349.22 333.39 Q354.02 318.06 345.11 299.8 Q329.56 312.85 327.7 328.81 Z"/>
<!-- Right eyelashes (soft, subtle) -->
<path d="M801.19 343.54 Q807.37 328.71 825.92 320.45 Q829.44 340.45 820.61 353.86 Z"/>
<path d="M738.86 327.27 Q739.6 311.22 754.2 297.11 Q764.35 314.69 760.64 330.33 Z"/>
<path d="M674.78 333.39 Q669.98 318.06 678.89 299.8 Q694.44 312.85 696.3 328.81 Z"/>
<!-- Left temple arm -->
<path d="M24 400 L142 444 L134 472 L16 428 Z"/>
<!-- Right temple arm -->
<path d="M1000 400 L882 444 L890 472 L1008 428 Z"/>
<!-- Bridge -->
<path d="M478 476 C478 442 546 442 546 476 L532 476 C532 458 492 458 492 476 Z"/>
<!-- Left lens (round, ring) -->
<path d="M115 512 A185 185 0 1 0 485 512 A185 185 0 1 0 115 512 Z
         M161 512 A139 139 0 1 0 439 512 A139 139 0 1 0 161 512 Z"/>
<!-- Right lens (round, ring) -->
<path d="M539 512 A185 185 0 1 0 909 512 A185 185 0 1 0 539 512 Z
         M585 512 A139 139 0 1 0 863 512 A139 139 0 1 0 585 512 Z"/>
</g>
</svg>
